<?xml version="1.0" encoding="iso-8859-1"?>
<!-- Generator: Adobe Illustrator 19.0.0, SVG Export Plug-In . SVG Version: 6.00 Build 0)  -->
<svg version="1.1" id="Layer_1" xmlns="http://www.w3.org/2000/svg" xmlns:xlink="http://www.w3.org/1999/xlink" x="0px" y="0px"
	 viewBox="0 0 486.4 486.4" style="enable-background:new 0 0 486.4 486.4;" xml:space="preserve">
<g>
	<path style="fill:#3B4D81;" d="M129.953,476.9H75.18c0-78.48,16.268-137.454,49.733-180.293
		c30.04-38.455,68.477-58.346,105.647-77.583c67.549-34.959,125.887-65.15,125.887-209.524h54.773
		c0,78.583-16.28,137.632-49.769,180.518c-30.063,38.498-68.522,58.402-105.716,77.651
		C188.242,302.598,129.953,332.764,129.953,476.9z"/>
	<path style="fill:#D71920;" d="M411.22,476.9h-54.773c0-144.136-58.289-174.302-125.782-209.231
		c-37.194-19.248-75.653-39.152-105.716-77.651C91.459,147.132,75.18,88.083,75.18,9.5h54.773
		c0,144.374,58.338,174.565,125.887,209.524c37.171,19.237,75.607,39.128,105.647,77.583
		C394.952,339.446,411.22,398.42,411.22,476.9z"/>
	<g>
		<g>
			<path d="M169.275,207.336c-2.193,0-4.396-0.755-6.189-2.296c-10.928-9.395-20.422-19.317-29.024-30.332
				c-3.229-4.135-2.494-10.105,1.641-13.335c4.136-3.228,10.106-2.494,13.335,1.641c7.821,10.016,16.468,19.051,26.435,27.619
				c3.979,3.421,4.431,9.418,1.011,13.397C174.605,206.214,171.948,207.336,169.275,207.336z"/>
		</g>
		<g>
			<path d="M315.4,298.389c-2.222,0-4.453-0.775-6.255-2.353c-18.989-16.631-41.94-28.509-66.239-41.084
				c-11.098-5.743-22.568-11.679-33.861-18.15c-4.552-2.609-6.128-8.414-3.52-12.966c2.61-4.552,8.414-6.127,12.966-3.52
				c10.941,6.269,22.227,12.11,33.142,17.758c25.358,13.124,49.304,25.517,70.03,43.668c3.947,3.457,4.345,9.459,0.888,13.406
				C320.672,297.292,318.042,298.389,315.4,298.389z"/>
		</g>
	</g>
	<g>
		<path d="M290.685,89.762h-25.138c-5.247,0-9.5-4.253-9.5-9.5s4.253-9.5,9.5-9.5h25.138c5.247,0,9.5,4.253,9.5,9.5
			C300.185,85.508,295.931,89.762,290.685,89.762z"/>
	</g>
	<path d="M317.534,243.311c18.354-12.514,35.87-27.552,51.405-47.446C403.782,151.244,420.721,90.283,420.721,9.5
		c0-5.247-4.253-9.5-9.5-9.5h-54.773c-5.247,0-9.5,4.253-9.5,9.5c0,5.382-0.087,10.584-0.245,15.639H139.698
		c-0.158-5.055-0.245-10.256-0.245-15.639c0-5.247-4.253-9.5-9.5-9.5H75.179c-5.247,0-9.5,4.253-9.5,9.5
		c0,80.783,16.938,141.744,51.781,186.366c15.535,19.893,33.05,34.932,51.405,47.446c-18.368,12.513-35.896,27.551-51.439,47.447
		C82.606,335.332,65.679,396.22,65.679,476.9c0,5.247,4.253,9.5,9.5,9.5h54.773c5.247,0,9.5-4.253,9.5-9.5
		c0-5.383,0.087-10.585,0.246-15.639h17.843c5.247,0,9.5-4.253,9.5-9.5s-4.253-9.5-9.5-9.5h-16.825
		c0.734-9.485,1.779-18.343,3.121-26.623h198.724c1.342,8.28,2.387,17.138,3.121,26.623H196.646c-5.247,0-9.5,4.253-9.5,9.5
		s4.253,9.5,9.5,9.5h150.055c0.159,5.054,0.246,10.256,0.246,15.639c0,5.247,4.253,9.5,9.5,9.5h54.773c5.247,0,9.5-4.253,9.5-9.5
		c0-80.68-16.927-141.568-51.747-186.142C353.431,270.862,335.903,255.824,317.534,243.311z M365.864,19h35.774
		c-1.255,71.646-16.884,125.742-47.674,165.172c-15.908,20.372-34.487,35.411-54.05,47.965
		c-12.055-7.154-24.307-13.572-36.455-19.865c16.388-9.231,31.855-19.319,45.622-32.195h21.64c5.247,0,9.5-4.253,9.5-9.5
		s-4.253-9.5-9.5-9.5h-4.35c6.055-7.879,11.375-16.423,16-25.692h14.42c5.247,0,9.5-4.253,9.5-9.5c0-5.247-4.253-9.5-9.5-9.5h-6.299
		c3.024-8.339,5.591-17.2,7.712-26.623h11.622c5.247,0,9.5-4.253,9.5-9.5s-4.253-9.5-9.5-9.5h-8.062
		c1.289-8.457,2.275-17.323,2.964-26.623h9.753c5.247,0,9.5-4.253,9.5-9.5s-4.253-9.5-9.5-9.5h-8.767
		C365.776,23.111,365.827,21.066,365.864,19z M184.996,161.076c-7.237-7.474-13.787-15.906-19.518-25.692h155.443
		c-5.731,9.786-12.281,18.218-19.518,25.692H184.996z M279.097,180.076c-11.089,7.916-23.152,14.824-35.897,21.621
		c-12.745-6.796-24.808-13.704-35.897-21.621H279.097z M345.687,44.139c-0.732,9.484-1.775,18.341-3.112,26.623h-18.371
		c-5.247,0-9.5,4.253-9.5,9.5s4.253,9.5,9.5,9.5h14.558c-2.37,9.738-5.221,18.568-8.509,26.623H156.147
		c-3.288-8.055-6.139-16.884-8.509-26.623h82.527c5.247,0,9.5-4.253,9.5-9.5s-4.253-9.5-9.5-9.5h-86.339
		c-1.338-8.281-2.381-17.139-3.112-26.623H345.687z M121.675,442.261h-10.261c-5.247,0-9.5,4.253-9.5,9.5s4.253,9.5,9.5,9.5h9.272
		c-0.062,2.028-0.112,4.073-0.15,6.139H84.762c1.256-71.541,16.873-125.563,47.637-164.945
		c15.915-20.373,34.507-35.41,54.083-47.963c12.054,7.159,24.306,13.579,36.455,19.873c-16.3,9.177-31.692,19.193-45.405,31.958
		h-22.358c-5.247,0-9.5,4.253-9.5,9.5s4.253,9.5,9.5,9.5h5.001c-0.057,0.074-0.116,0.144-0.173,0.218
		c-6.01,7.817-11.296,16.289-15.896,25.474h-15.002c-5.247,0-9.5,4.253-9.5,9.5s4.253,9.5,9.5,9.5h6.851
		c-3.034,8.338-5.609,17.199-7.737,26.623h-12.149c-5.247,0-9.5,4.253-9.5,9.5s4.253,9.5,9.5,9.5h8.578
		C123.355,424.095,122.366,432.961,121.675,442.261z M301.208,325.324c7.273,7.472,13.858,15.901,19.617,25.692H165.574
		c5.759-9.791,12.344-18.22,19.617-25.692H301.208z M207.617,306.324c11.003-7.816,22.958-14.653,35.583-21.383
		c12.625,6.73,24.581,13.567,35.583,21.383H207.617z M147.664,396.638c2.379-9.74,5.24-18.57,8.54-26.623h173.991
		c3.3,8.053,6.162,16.882,8.54,26.623H147.664z M365.863,467.4c-1.132-63.171-13.755-108.419-39.466-141.858
		c-17.482-22.736-39.251-37.842-62.935-51.175c-6.621-3.728-13.394-7.317-20.263-10.896c-2.709-1.412-5.432-2.822-8.169-4.238
		c-9.934-5.141-19.96-10.333-29.874-15.914c-6.286-3.539-12.527-7.239-18.671-11.181c-19.562-12.553-38.141-27.592-54.05-47.965
		C101.646,144.742,86.017,90.646,84.762,19h35.774c1.13,63.283,13.762,108.595,39.496,142.081
		c17.477,22.741,39.235,37.854,62.909,51.19c6.62,3.729,13.391,7.319,20.259,10.898c2.744,1.43,5.501,2.858,8.273,4.293
		c9.899,5.123,19.89,10.297,29.77,15.856c6.287,3.538,12.529,7.235,18.674,11.175c19.576,12.552,38.168,27.589,54.083,47.963
		c30.764,39.381,46.382,93.403,47.637,164.945h-35.774V467.4z"/>
</g>
<g>
</g>
<g>
</g>
<g>
</g>
<g>
</g>
<g>
</g>
<g>
</g>
<g>
</g>
<g>
</g>
<g>
</g>
<g>
</g>
<g>
</g>
<g>
</g>
<g>
</g>
<g>
</g>
<g>
</g>
</svg>
